<svg preserveAspectRatio="none" overflow="visible" style="display: block;" width="60" height="60" viewBox="0 0 60 60" fill="none" xmlns="http://www.w3.org/2000/svg">
<g id="Frame">
<path id="Vector" d="M50.625 9.375H9.375C8.38044 9.375 7.42661 9.77009 6.72335 10.4733C6.02009 11.1766 5.625 12.1304 5.625 13.125V46.875C5.625 47.8696 6.02009 48.8234 6.72335 49.5266C7.42661 50.2299 8.38044 50.625 9.375 50.625H12.5133C12.8681 50.6251 13.2157 50.5245 13.5157 50.3349C13.8157 50.1453 14.0557 49.8745 14.2078 49.5539C15.1196 47.6289 16.5591 46.0023 18.3589 44.8633C20.1588 43.7243 22.245 43.1196 24.375 43.1196C26.505 43.1196 28.5912 43.7243 30.3911 44.8633C32.1909 46.0023 33.6304 47.6289 34.5422 49.5539C34.6943 49.8745 34.9343 50.1453 35.2343 50.3349C35.5343 50.5245 35.8819 50.6251 36.2367 50.625H50.625C51.6196 50.625 52.5734 50.2299 53.2766 49.5266C53.9799 48.8234 54.375 47.8696 54.375 46.875V13.125C54.375 12.1304 53.9799 11.1766 53.2766 10.4733C52.5734 9.77009 51.6196 9.375 50.625 9.375ZM24.375 39.375C22.8916 39.375 21.4416 38.9351 20.2082 38.111C18.9749 37.2869 18.0136 36.1156 17.4459 34.7451C16.8782 33.3747 16.7297 31.8667 17.0191 30.4118C17.3085 28.957 18.0228 27.6206 19.0717 26.5717C20.1206 25.5228 21.457 24.8085 22.9118 24.5191C24.3667 24.2297 25.8747 24.3782 27.2451 24.9459C28.6156 25.5136 29.7869 26.4749 30.611 27.7082C31.4351 28.9416 31.875 30.3916 31.875 31.875C31.875 33.8641 31.0848 35.7718 29.6783 37.1783C28.2718 38.5848 26.3641 39.375 24.375 39.375ZM50.625 46.875H37.3664C36.549 45.4656 35.5072 44.199 34.282 43.125H45C45.4973 43.125 45.9742 42.9275 46.3258 42.5758C46.6775 42.2242 46.875 41.7473 46.875 41.25V18.75C46.875 18.2527 46.6775 17.7758 46.3258 17.4242C45.9742 17.0725 45.4973 16.875 45 16.875H15C14.5027 16.875 14.0258 17.0725 13.6742 17.4242C13.3225 17.7758 13.125 18.2527 13.125 18.75V41.25C13.1248 41.6658 13.2628 42.07 13.5174 42.3988C13.772 42.7276 14.1286 42.9624 14.5312 43.0664C13.2778 44.1524 12.2141 45.4395 11.3836 46.875H9.375V13.125H50.625V46.875Z" fill="#676BC4"/>
</g>
</svg>
